<svg version="1.1" xmlns="http://www.w3.org/2000/svg" width="27" height="32" viewBox="0 0 27 32" fill="white">
<path d="M13.472 18.848q0 0.224-0.16 0.416l-5.92 5.92 2.56 2.592q0.32 0.32 0.32 0.8t-0.32 0.8-0.8 0.352h-8q-0.48 0-0.8-0.352t-0.352-0.8v-8q0-0.48 0.352-0.8t0.8-0.352 0.8 0.352l2.56 2.56 5.952-5.92q0.16-0.192 0.384-0.192t0.416 0.192l2.048 2.016q0.16 0.192 0.16 0.416zM27.424 3.424v8q0 0.48-0.32 0.8t-0.832 0.352-0.8-0.352l-2.56-2.56-5.92 5.92q-0.192 0.192-0.416 0.192t-0.416-0.192l-2.048-2.048q-0.16-0.16-0.16-0.384t0.16-0.416l5.952-5.92-2.592-2.592q-0.32-0.32-0.32-0.8t0.32-0.8 0.8-0.352h8q0.48 0 0.832 0.352t0.32 0.8z"></path>
</svg>
